<?xml version="1.0" encoding="utf-8" standalone="no"?>
<!DOCTYPE svg PUBLIC "-//W3C//DTD SVG 1.1//EN"
  "http://www.w3.org/Graphics/SVG/1.1/DTD/svg11.dtd">
<svg height="360pt" version="1.1" viewBox="0 0 576 360" width="576pt" xmlns="http://www.w3.org/2000/svg" xmlns:xlink="http://www.w3.org/1999/xlink">
 <metadata>
  <rdf:RDF xmlns:cc="http://creativecommons.org/ns#" xmlns:dc="http://purl.org/dc/elements/1.1/" xmlns:rdf="http://www.w3.org/1999/02/22-rdf-syntax-ns#">
   <cc:Work>
    <dc:type rdf:resource="http://purl.org/dc/dcmitype/StillImage"/>
    <dc:date>2023-05-10T12:09:23.116592</dc:date>
    <dc:format>image/svg+xml</dc:format>
    <dc:creator>
     <cc:Agent>
      <dc:title>Matplotlib v3.4.3, https://matplotlib.org/</dc:title>
     </cc:Agent>
    </dc:creator>
   </cc:Work>
  </rdf:RDF>
 </metadata>
 <defs>
  <style type="text/css">*{stroke-linecap:butt;stroke-linejoin:round;}</style>
 </defs>
 <g id="figure_1">
  <g id="patch_1">
   <path d="M 0 360 
L 576 360 
L 576 0 
L 0 0 
z
" style="fill:#ffffff;"/>
  </g>
  <g id="axes_1">
   <g id="patch_2">
    <path d="M 72 320.4 
L 518.4 320.4 
L 518.4 43.2 
L 72 43.2 
z
" style="fill:#ffffff;"/>
   </g>
   <g id="matplotlib.axis_1">
    <g id="xtick_1">
     <g id="line2d_1">
      <defs>
       <path d="M 0 0 
L 0 3.5 
" id="mbaf81b4f14" style="stroke:#000000;stroke-width:0.8;"/>
      </defs>
      <g>
       <use style="stroke:#000000;stroke-width:0.8;" x="92.290909" xlink:href="#mbaf81b4f14" y="320.4"/>
      </g>
     </g>
     <g id="text_1">
      <!-- 0 -->
      <g transform="translate(89.109659 334.998438)scale(0.1 -0.1)">
       <defs>
        <path d="M 2034 4250 
Q 1547 4250 1301 3770 
Q 1056 3291 1056 2328 
Q 1056 1369 1301 889 
Q 1547 409 2034 409 
Q 2525 409 2770 889 
Q 3016 1369 3016 2328 
Q 3016 3291 2770 3770 
Q 2525 4250 2034 4250 
z
M 2034 4750 
Q 2819 4750 3233 4129 
Q 3647 3509 3647 2328 
Q 3647 1150 3233 529 
Q 2819 -91 2034 -91 
Q 1250 -91 836 529 
Q 422 1150 422 2328 
Q 422 3509 836 4129 
Q 1250 4750 2034 4750 
z
" id="DejaVuSans-30" transform="scale(0.015625)"/>
       </defs>
       <use xlink:href="#DejaVuSans-30"/>
      </g>
     </g>
    </g>
    <g id="xtick_2">
     <g id="line2d_2">
      <g>
       <use style="stroke:#000000;stroke-width:0.8;" x="174.548572" xlink:href="#mbaf81b4f14" y="320.4"/>
      </g>
     </g>
     <g id="text_2">
      <!-- 2 -->
      <g transform="translate(171.367322 334.998438)scale(0.1 -0.1)">
       <defs>
        <path d="M 1228 531 
L 3431 531 
L 3431 0 
L 469 0 
L 469 531 
Q 828 903 1448 1529 
Q 2069 2156 2228 2338 
Q 2531 2678 2651 2914 
Q 2772 3150 2772 3378 
Q 2772 3750 2511 3984 
Q 2250 4219 1831 4219 
Q 1534 4219 1204 4116 
Q 875 4013 500 3803 
L 500 4441 
Q 881 4594 1212 4672 
Q 1544 4750 1819 4750 
Q 2544 4750 2975 4387 
Q 3406 4025 3406 3419 
Q 3406 3131 3298 2873 
Q 3191 2616 2906 2266 
Q 2828 2175 2409 1742 
Q 1991 1309 1228 531 
z
" id="DejaVuSans-32" transform="scale(0.015625)"/>
       </defs>
       <use xlink:href="#DejaVuSans-32"/>
      </g>
     </g>
    </g>
    <g id="xtick_3">
     <g id="line2d_3">
      <g>
       <use style="stroke:#000000;stroke-width:0.8;" x="256.806236" xlink:href="#mbaf81b4f14" y="320.4"/>
      </g>
     </g>
     <g id="text_3">
      <!-- 4 -->
      <g transform="translate(253.624986 334.998438)scale(0.1 -0.1)">
       <defs>
        <path d="M 2419 4116 
L 825 1625 
L 2419 1625 
L 2419 4116 
z
M 2253 4666 
L 3047 4666 
L 3047 1625 
L 3713 1625 
L 3713 1100 
L 3047 1100 
L 3047 0 
L 2419 0 
L 2419 1100 
L 313 1100 
L 313 1709 
L 2253 4666 
z
" id="DejaVuSans-34" transform="scale(0.015625)"/>
       </defs>
       <use xlink:href="#DejaVuSans-34"/>
      </g>
     </g>
    </g>
    <g id="xtick_4">
     <g id="line2d_4">
      <g>
       <use style="stroke:#000000;stroke-width:0.8;" x="339.063899" xlink:href="#mbaf81b4f14" y="320.4"/>
      </g>
     </g>
     <g id="text_4">
      <!-- 6 -->
      <g transform="translate(335.882649 334.998438)scale(0.1 -0.1)">
       <defs>
        <path d="M 2113 2584 
Q 1688 2584 1439 2293 
Q 1191 2003 1191 1497 
Q 1191 994 1439 701 
Q 1688 409 2113 409 
Q 2538 409 2786 701 
Q 3034 994 3034 1497 
Q 3034 2003 2786 2293 
Q 2538 2584 2113 2584 
z
M 3366 4563 
L 3366 3988 
Q 3128 4100 2886 4159 
Q 2644 4219 2406 4219 
Q 1781 4219 1451 3797 
Q 1122 3375 1075 2522 
Q 1259 2794 1537 2939 
Q 1816 3084 2150 3084 
Q 2853 3084 3261 2657 
Q 3669 2231 3669 1497 
Q 3669 778 3244 343 
Q 2819 -91 2113 -91 
Q 1303 -91 875 529 
Q 447 1150 447 2328 
Q 447 3434 972 4092 
Q 1497 4750 2381 4750 
Q 2619 4750 2861 4703 
Q 3103 4656 3366 4563 
z
" id="DejaVuSans-36" transform="scale(0.015625)"/>
       </defs>
       <use xlink:href="#DejaVuSans-36"/>
      </g>
     </g>
    </g>
    <g id="xtick_5">
     <g id="line2d_5">
      <g>
       <use style="stroke:#000000;stroke-width:0.8;" x="421.321562" xlink:href="#mbaf81b4f14" y="320.4"/>
      </g>
     </g>
     <g id="text_5">
      <!-- 8 -->
      <g transform="translate(418.140312 334.998438)scale(0.1 -0.1)">
       <defs>
        <path d="M 2034 2216 
Q 1584 2216 1326 1975 
Q 1069 1734 1069 1313 
Q 1069 891 1326 650 
Q 1584 409 2034 409 
Q 2484 409 2743 651 
Q 3003 894 3003 1313 
Q 3003 1734 2745 1975 
Q 2488 2216 2034 2216 
z
M 1403 2484 
Q 997 2584 770 2862 
Q 544 3141 544 3541 
Q 544 4100 942 4425 
Q 1341 4750 2034 4750 
Q 2731 4750 3128 4425 
Q 3525 4100 3525 3541 
Q 3525 3141 3298 2862 
Q 3072 2584 2669 2484 
Q 3125 2378 3379 2068 
Q 3634 1759 3634 1313 
Q 3634 634 3220 271 
Q 2806 -91 2034 -91 
Q 1263 -91 848 271 
Q 434 634 434 1313 
Q 434 1759 690 2068 
Q 947 2378 1403 2484 
z
M 1172 3481 
Q 1172 3119 1398 2916 
Q 1625 2713 2034 2713 
Q 2441 2713 2670 2916 
Q 2900 3119 2900 3481 
Q 2900 3844 2670 4047 
Q 2441 4250 2034 4250 
Q 1625 4250 1398 4047 
Q 1172 3844 1172 3481 
z
" id="DejaVuSans-38" transform="scale(0.015625)"/>
       </defs>
       <use xlink:href="#DejaVuSans-38"/>
      </g>
     </g>
    </g>
    <g id="xtick_6">
     <g id="line2d_6">
      <g>
       <use style="stroke:#000000;stroke-width:0.8;" x="503.579226" xlink:href="#mbaf81b4f14" y="320.4"/>
      </g>
     </g>
     <g id="text_6">
      <!-- 10 -->
      <g transform="translate(497.216726 334.998438)scale(0.1 -0.1)">
       <defs>
        <path d="M 794 531 
L 1825 531 
L 1825 4091 
L 703 3866 
L 703 4441 
L 1819 4666 
L 2450 4666 
L 2450 531 
L 3481 531 
L 3481 0 
L 794 0 
L 794 531 
z
" id="DejaVuSans-31" transform="scale(0.015625)"/>
       </defs>
       <use xlink:href="#DejaVuSans-31"/>
       <use x="63.623047" xlink:href="#DejaVuSans-30"/>
      </g>
     </g>
    </g>
    <g id="xtick_7">
     <g id="line2d_7">
      <defs>
       <path d="M 0 0 
L 0 2 
" id="m44ab953199" style="stroke:#000000;stroke-width:0.6;"/>
      </defs>
      <g>
       <use style="stroke:#000000;stroke-width:0.6;" x="112.855325" xlink:href="#m44ab953199" y="320.4"/>
      </g>
     </g>
    </g>
    <g id="xtick_8">
     <g id="line2d_8">
      <g>
       <use style="stroke:#000000;stroke-width:0.6;" x="133.419741" xlink:href="#m44ab953199" y="320.4"/>
      </g>
     </g>
    </g>
    <g id="xtick_9">
     <g id="line2d_9">
      <g>
       <use style="stroke:#000000;stroke-width:0.6;" x="153.984157" xlink:href="#m44ab953199" y="320.4"/>
      </g>
     </g>
    </g>
    <g id="xtick_10">
     <g id="line2d_10">
      <g>
       <use style="stroke:#000000;stroke-width:0.6;" x="195.112988" xlink:href="#m44ab953199" y="320.4"/>
      </g>
     </g>
    </g>
    <g id="xtick_11">
     <g id="line2d_11">
      <g>
       <use style="stroke:#000000;stroke-width:0.6;" x="215.677404" xlink:href="#m44ab953199" y="320.4"/>
      </g>
     </g>
    </g>
    <g id="xtick_12">
     <g id="line2d_12">
      <g>
       <use style="stroke:#000000;stroke-width:0.6;" x="236.24182" xlink:href="#m44ab953199" y="320.4"/>
      </g>
     </g>
    </g>
    <g id="xtick_13">
     <g id="line2d_13">
      <g>
       <use style="stroke:#000000;stroke-width:0.6;" x="277.370651" xlink:href="#m44ab953199" y="320.4"/>
      </g>
     </g>
    </g>
    <g id="xtick_14">
     <g id="line2d_14">
      <g>
       <use style="stroke:#000000;stroke-width:0.6;" x="297.935067" xlink:href="#m44ab953199" y="320.4"/>
      </g>
     </g>
    </g>
    <g id="xtick_15">
     <g id="line2d_15">
      <g>
       <use style="stroke:#000000;stroke-width:0.6;" x="318.499483" xlink:href="#m44ab953199" y="320.4"/>
      </g>
     </g>
    </g>
    <g id="xtick_16">
     <g id="line2d_16">
      <g>
       <use style="stroke:#000000;stroke-width:0.6;" x="359.628315" xlink:href="#m44ab953199" y="320.4"/>
      </g>
     </g>
    </g>
    <g id="xtick_17">
     <g id="line2d_17">
      <g>
       <use style="stroke:#000000;stroke-width:0.6;" x="380.192731" xlink:href="#m44ab953199" y="320.4"/>
      </g>
     </g>
    </g>
    <g id="xtick_18">
     <g id="line2d_18">
      <g>
       <use style="stroke:#000000;stroke-width:0.6;" x="400.757146" xlink:href="#m44ab953199" y="320.4"/>
      </g>
     </g>
    </g>
    <g id="xtick_19">
     <g id="line2d_19">
      <g>
       <use style="stroke:#000000;stroke-width:0.6;" x="441.885978" xlink:href="#m44ab953199" y="320.4"/>
      </g>
     </g>
    </g>
    <g id="xtick_20">
     <g id="line2d_20">
      <g>
       <use style="stroke:#000000;stroke-width:0.6;" x="462.450394" xlink:href="#m44ab953199" y="320.4"/>
      </g>
     </g>
    </g>
    <g id="xtick_21">
     <g id="line2d_21">
      <g>
       <use style="stroke:#000000;stroke-width:0.6;" x="483.01481" xlink:href="#m44ab953199" y="320.4"/>
      </g>
     </g>
    </g>
    <g id="text_7">
     <!-- t, с -->
     <g transform="translate(285.735 350.19625)scale(0.12 -0.12)">
      <defs>
       <path d="M 1172 4494 
L 1172 3500 
L 2356 3500 
L 2356 3053 
L 1172 3053 
L 1172 1153 
Q 1172 725 1289 603 
Q 1406 481 1766 481 
L 2356 481 
L 2356 0 
L 1766 0 
Q 1100 0 847 248 
Q 594 497 594 1153 
L 594 3053 
L 172 3053 
L 172 3500 
L 594 3500 
L 594 4494 
L 1172 4494 
z
" id="DejaVuSans-74" transform="scale(0.015625)"/>
       <path d="M 750 794 
L 1409 794 
L 1409 256 
L 897 -744 
L 494 -744 
L 750 256 
L 750 794 
z
" id="DejaVuSans-2c" transform="scale(0.015625)"/>
       <path id="DejaVuSans-20" transform="scale(0.015625)"/>
       <path d="M 3122 3366 
L 3122 2828 
Q 2878 2963 2633 3030 
Q 2388 3097 2138 3097 
Q 1578 3097 1268 2742 
Q 959 2388 959 1747 
Q 959 1106 1268 751 
Q 1578 397 2138 397 
Q 2388 397 2633 464 
Q 2878 531 3122 666 
L 3122 134 
Q 2881 22 2623 -34 
Q 2366 -91 2075 -91 
Q 1284 -91 818 406 
Q 353 903 353 1747 
Q 353 2603 823 3093 
Q 1294 3584 2113 3584 
Q 2378 3584 2631 3529 
Q 2884 3475 3122 3366 
z
" id="DejaVuSans-441" transform="scale(0.015625)"/>
      </defs>
      <use xlink:href="#DejaVuSans-74"/>
      <use x="39.208984" xlink:href="#DejaVuSans-2c"/>
      <use x="70.996094" xlink:href="#DejaVuSans-20"/>
      <use x="102.783203" xlink:href="#DejaVuSans-441"/>
     </g>
    </g>
   </g>
   <g id="matplotlib.axis_2">
    <g id="ytick_1">
     <g id="line2d_22">
      <defs>
       <path d="M 0 0 
L -3.5 0 
" id="m2d776977c0" style="stroke:#000000;stroke-width:0.8;"/>
      </defs>
      <g>
       <use style="stroke:#000000;stroke-width:0.8;" x="72" xlink:href="#m2d776977c0" y="308.82439"/>
      </g>
     </g>
     <g id="text_8">
      <!-- 0 -->
      <g transform="translate(58.6375 312.623609)scale(0.1 -0.1)">
       <use xlink:href="#DejaVuSans-30"/>
      </g>
     </g>
    </g>
    <g id="ytick_2">
     <g id="line2d_23">
      <g>
       <use style="stroke:#000000;stroke-width:0.8;" x="72" xlink:href="#m2d776977c0" y="232.377357"/>
      </g>
     </g>
     <g id="text_9">
      <!-- 1 -->
      <g transform="translate(58.6375 236.176576)scale(0.1 -0.1)">
       <use xlink:href="#DejaVuSans-31"/>
      </g>
     </g>
    </g>
    <g id="ytick_3">
     <g id="line2d_24">
      <g>
       <use style="stroke:#000000;stroke-width:0.8;" x="72" xlink:href="#m2d776977c0" y="155.930324"/>
      </g>
     </g>
     <g id="text_10">
      <!-- 2 -->
      <g transform="translate(58.6375 159.729543)scale(0.1 -0.1)">
       <use xlink:href="#DejaVuSans-32"/>
      </g>
     </g>
    </g>
    <g id="ytick_4">
     <g id="line2d_25">
      <g>
       <use style="stroke:#000000;stroke-width:0.8;" x="72" xlink:href="#m2d776977c0" y="79.483291"/>
      </g>
     </g>
     <g id="text_11">
      <!-- 3 -->
      <g transform="translate(58.6375 83.28251)scale(0.1 -0.1)">
       <defs>
        <path d="M 2597 2516 
Q 3050 2419 3304 2112 
Q 3559 1806 3559 1356 
Q 3559 666 3084 287 
Q 2609 -91 1734 -91 
Q 1441 -91 1130 -33 
Q 819 25 488 141 
L 488 750 
Q 750 597 1062 519 
Q 1375 441 1716 441 
Q 2309 441 2620 675 
Q 2931 909 2931 1356 
Q 2931 1769 2642 2001 
Q 2353 2234 1838 2234 
L 1294 2234 
L 1294 2753 
L 1863 2753 
Q 2328 2753 2575 2939 
Q 2822 3125 2822 3475 
Q 2822 3834 2567 4026 
Q 2313 4219 1838 4219 
Q 1578 4219 1281 4162 
Q 984 4106 628 3988 
L 628 4550 
Q 988 4650 1302 4700 
Q 1616 4750 1894 4750 
Q 2613 4750 3031 4423 
Q 3450 4097 3450 3541 
Q 3450 3153 3228 2886 
Q 3006 2619 2597 2516 
z
" id="DejaVuSans-33" transform="scale(0.015625)"/>
       </defs>
       <use xlink:href="#DejaVuSans-33"/>
      </g>
     </g>
    </g>
    <g id="ytick_5">
     <g id="line2d_26">
      <defs>
       <path d="M 0 0 
L -2 0 
" id="m563d4bf7bb" style="stroke:#000000;stroke-width:0.6;"/>
      </defs>
      <g>
       <use style="stroke:#000000;stroke-width:0.6;" x="72" xlink:href="#m563d4bf7bb" y="289.712632"/>
      </g>
     </g>
    </g>
    <g id="ytick_6">
     <g id="line2d_27">
      <g>
       <use style="stroke:#000000;stroke-width:0.6;" x="72" xlink:href="#m563d4bf7bb" y="270.600874"/>
      </g>
     </g>
    </g>
    <g id="ytick_7">
     <g id="line2d_28">
      <g>
       <use style="stroke:#000000;stroke-width:0.6;" x="72" xlink:href="#m563d4bf7bb" y="251.489115"/>
      </g>
     </g>
    </g>
    <g id="ytick_8">
     <g id="line2d_29">
      <g>
       <use style="stroke:#000000;stroke-width:0.6;" x="72" xlink:href="#m563d4bf7bb" y="213.265599"/>
      </g>
     </g>
    </g>
    <g id="ytick_9">
     <g id="line2d_30">
      <g>
       <use style="stroke:#000000;stroke-width:0.6;" x="72" xlink:href="#m563d4bf7bb" y="194.153841"/>
      </g>
     </g>
    </g>
    <g id="ytick_10">
     <g id="line2d_31">
      <g>
       <use style="stroke:#000000;stroke-width:0.6;" x="72" xlink:href="#m563d4bf7bb" y="175.042082"/>
      </g>
     </g>
    </g>
    <g id="ytick_11">
     <g id="line2d_32">
      <g>
       <use style="stroke:#000000;stroke-width:0.6;" x="72" xlink:href="#m563d4bf7bb" y="136.818566"/>
      </g>
     </g>
    </g>
    <g id="ytick_12">
     <g id="line2d_33">
      <g>
       <use style="stroke:#000000;stroke-width:0.6;" x="72" xlink:href="#m563d4bf7bb" y="117.706807"/>
      </g>
     </g>
    </g>
    <g id="ytick_13">
     <g id="line2d_34">
      <g>
       <use style="stroke:#000000;stroke-width:0.6;" x="72" xlink:href="#m563d4bf7bb" y="98.595049"/>
      </g>
     </g>
    </g>
    <g id="ytick_14">
     <g id="line2d_35">
      <g>
       <use style="stroke:#000000;stroke-width:0.6;" x="72" xlink:href="#m563d4bf7bb" y="60.371533"/>
      </g>
     </g>
    </g>
    <g id="text_12">
     <!-- V, мВ -->
     <g transform="translate(52.141875 198.360937)rotate(-90)scale(0.12 -0.12)">
      <defs>
       <path d="M 1831 0 
L 50 4666 
L 709 4666 
L 2188 738 
L 3669 4666 
L 4325 4666 
L 2547 0 
L 1831 0 
z
" id="DejaVuSans-56" transform="scale(0.015625)"/>
       <path d="M 581 3500 
L 1422 3500 
L 2416 1156 
L 3413 3500 
L 4247 3500 
L 4247 0 
L 3669 0 
L 3669 2950 
L 2703 672 
L 2128 672 
L 1159 2950 
L 1159 0 
L 581 0 
L 581 3500 
z
" id="DejaVuSans-43c" transform="scale(0.015625)"/>
       <path d="M 1259 2228 
L 1259 519 
L 2272 519 
Q 2781 519 3026 730 
Q 3272 941 3272 1375 
Q 3272 1813 3026 2020 
Q 2781 2228 2272 2228 
L 1259 2228 
z
M 1259 4147 
L 1259 2741 
L 2194 2741 
Q 2656 2741 2882 2914 
Q 3109 3088 3109 3444 
Q 3109 3797 2882 3972 
Q 2656 4147 2194 4147 
L 1259 4147 
z
M 628 4666 
L 2241 4666 
Q 2963 4666 3353 4366 
Q 3744 4066 3744 3513 
Q 3744 3084 3544 2831 
Q 3344 2578 2956 2516 
Q 3422 2416 3680 2098 
Q 3938 1781 3938 1306 
Q 3938 681 3513 340 
Q 3088 0 2303 0 
L 628 0 
L 628 4666 
z
" id="DejaVuSans-412" transform="scale(0.015625)"/>
      </defs>
      <use xlink:href="#DejaVuSans-56"/>
      <use x="68.408203" xlink:href="#DejaVuSans-2c"/>
      <use x="100.195312" xlink:href="#DejaVuSans-20"/>
      <use x="131.982422" xlink:href="#DejaVuSans-43c"/>
      <use x="207.421875" xlink:href="#DejaVuSans-412"/>
     </g>
    </g>
   </g>
   <g id="line2d_36">
    <path clip-path="url(#p85b544ac28)" d="M 92.290909 307.8 
L 92.743326 303.702439 
L 94.100578 297.556098 
L 94.552995 293.458537 
L 95.457829 289.360976 
L 95.910246 285.263415 
L 96.362663 285.263415 
L 96.815081 281.165854 
L 97.267498 281.165854 
L 97.719915 277.068293 
L 98.172332 277.068293 
L 98.624749 270.921951 
L 104.506172 244.287805 
L 104.958589 244.287805 
L 105.411006 240.190244 
L 107.220675 231.995122 
L 107.673092 231.995122 
L 108.125509 227.897561 
L 108.577926 227.897561 
L 112.197264 211.507317 
L 112.649681 211.507317 
L 114.459349 203.312195 
L 114.911766 203.312195 
L 116.721435 195.117073 
L 117.173852 195.117073 
L 118.078687 191.019512 
L 118.531104 191.019512 
L 119.435938 186.921951 
L 119.888355 186.921951 
L 120.793189 182.82439 
L 121.245607 182.82439 
L 122.150441 178.726829 
L 123.055275 178.726829 
L 123.507692 174.629268 
L 123.960109 174.629268 
L 124.412527 172.580488 
L 124.864944 172.580488 
L 125.769778 168.482927 
L 126.222195 168.482927 
L 126.674612 166.434146 
L 127.127029 166.434146 
L 128.031864 162.336585 
L 128.936698 162.336585 
L 129.841532 158.239024 
L 130.746367 158.239024 
L 131.651201 154.141463 
L 132.103618 154.141463 
L 132.556035 152.092683 
L 133.008452 152.092683 
L 133.46087 150.043902 
L 133.913287 150.043902 
L 134.365704 147.995122 
L 134.818121 147.995122 
L 135.270538 145.946341 
L 136.62779 145.946341 
L 137.080207 141.84878 
L 137.985041 141.84878 
L 138.437458 139.8 
L 138.889875 139.8 
L 139.342292 137.75122 
L 140.247127 137.75122 
L 140.699544 135.702439 
L 141.151961 135.702439 
L 141.604378 133.653659 
L 142.056795 133.653659 
L 142.509213 131.604878 
L 143.866464 131.604878 
L 144.771298 127.507317 
L 145.676133 127.507317 
L 146.12855 125.458537 
L 147.033384 125.458537 
L 147.485801 123.409756 
L 147.938218 123.409756 
L 148.390635 121.360976 
L 149.747887 121.360976 
L 150.200304 119.312195 
L 150.652721 119.312195 
L 151.105138 117.263415 
L 152.009973 117.263415 
L 152.46239 115.214634 
L 153.819641 115.214634 
L 154.724476 111.117073 
L 157.438978 111.117073 
L 158.343813 107.019512 
L 160.153481 107.019512 
L 160.605898 104.970732 
L 161.96315 104.970732 
L 162.415567 102.921951 
L 163.320401 102.921951 
L 163.772818 100.873171 
L 164.677653 100.873171 
L 165.13007 98.82439 
L 166.939739 98.82439 
L 167.392156 96.77561 
L 169.201824 96.77561 
L 169.654241 94.726829 
L 171.46391 94.726829 
L 171.916327 92.678049 
L 173.725996 92.678049 
L 174.178413 90.629268 
L 175.083247 90.629268 
L 175.535664 88.580488 
L 175.988081 90.629268 
L 176.440499 88.580488 
L 177.79775 88.580488 
L 178.250167 86.531707 
L 181.417087 86.531707 
L 181.869504 84.482927 
L 184.13159 84.482927 
L 184.584007 82.434146 
L 186.846093 82.434146 
L 187.29851 80.385366 
L 189.108179 80.385366 
L 189.560596 78.336585 
L 194.537185 78.336585 
L 194.989602 76.287805 
L 198.608939 76.287805 
L 199.061356 74.239024 
L 199.513773 76.287805 
L 199.96619 74.239024 
L 202.228276 74.239024 
L 202.680693 72.190244 
L 203.13311 74.239024 
L 203.585528 72.190244 
L 207.657282 72.190244 
L 208.109699 70.141463 
L 212.181453 70.141463 
L 212.63387 68.092683 
L 216.705625 68.092683 
L 217.158042 66.043902 
L 217.610459 68.092683 
L 218.062876 68.092683 
L 218.515293 66.043902 
L 222.587048 66.043902 
L 223.039465 63.995122 
L 223.491882 66.043902 
L 223.944299 66.043902 
L 224.396716 63.995122 
L 224.849133 66.043902 
L 225.301551 66.043902 
L 225.753968 63.995122 
L 229.373305 63.995122 
L 229.825722 61.946341 
L 230.278139 63.995122 
L 230.730556 63.995122 
L 231.182974 61.946341 
L 231.635391 61.946341 
L 232.087808 63.995122 
L 233.445059 63.995122 
L 233.897476 61.946341 
L 242.493402 61.946341 
L 242.945819 59.897561 
L 243.398237 61.946341 
L 243.850654 59.897561 
L 253.803831 59.897561 
L 254.256248 57.84878 
L 254.708665 57.84878 
L 255.161082 59.897561 
L 255.6135 59.897561 
L 256.065917 57.84878 
L 256.518334 57.84878 
L 256.970751 59.897561 
L 257.423168 57.84878 
L 265.11426 57.84878 
L 265.566677 55.8 
L 266.019094 59.897561 
L 266.471511 61.946341 
L 266.923928 61.946341 
L 267.376345 66.043902 
L 268.28118 70.141463 
L 268.733597 74.239024 
L 269.186014 74.239024 
L 269.638431 78.336585 
L 270.090848 78.336585 
L 270.543265 82.434146 
L 271.4481 86.531707 
L 271.900517 86.531707 
L 272.352934 90.629268 
L 272.805351 90.629268 
L 277.329523 111.117073 
L 277.78194 111.117073 
L 280.044026 121.360976 
L 280.496443 121.360976 
L 280.94886 125.458537 
L 281.401277 125.458537 
L 281.853694 127.507317 
L 282.306111 127.507317 
L 284.568197 137.75122 
L 285.020614 137.75122 
L 286.830283 145.946341 
L 287.2827 145.946341 
L 288.187534 150.043902 
L 288.639951 150.043902 
L 289.092369 152.092683 
L 289.544786 152.092683 
L 290.902037 158.239024 
L 291.354454 158.239024 
L 291.806871 160.287805 
L 292.259289 160.287805 
L 293.164123 164.385366 
L 293.61654 164.385366 
L 294.521374 168.482927 
L 294.973791 168.482927 
L 295.426209 170.531707 
L 295.878626 170.531707 
L 296.331043 172.580488 
L 296.78346 172.580488 
L 297.235877 174.629268 
L 297.688294 174.629268 
L 298.140711 176.678049 
L 298.593129 176.678049 
L 299.045546 178.726829 
L 299.497963 178.726829 
L 299.95038 180.77561 
L 300.402797 180.77561 
L 301.307631 184.873171 
L 302.212466 184.873171 
L 302.664883 186.921951 
L 303.1173 186.921951 
L 303.569717 188.970732 
L 304.022134 188.970732 
L 304.926969 193.068293 
L 305.831803 193.068293 
L 306.28422 195.117073 
L 306.736637 195.117073 
L 307.189054 197.165854 
L 307.641472 197.165854 
L 308.093889 199.214634 
L 308.546306 199.214634 
L 308.998723 201.263415 
L 309.903557 201.263415 
L 310.355974 203.312195 
L 310.808392 203.312195 
L 311.260809 205.360976 
L 311.713226 205.360976 
L 312.165643 207.409756 
L 312.61806 207.409756 
L 313.070477 209.458537 
L 314.427729 209.458537 
L 315.332563 213.556098 
L 316.237397 213.556098 
L 316.689815 215.604878 
L 317.142232 215.604878 
L 317.594649 217.653659 
L 318.9519 217.653659 
L 319.404317 219.702439 
L 319.856735 219.702439 
L 320.309152 221.75122 
L 321.213986 221.75122 
L 321.666403 223.8 
L 322.11882 223.8 
L 322.571237 225.84878 
L 323.476072 225.84878 
L 323.928489 227.897561 
L 325.28574 227.897561 
L 325.738157 229.946341 
L 326.642992 229.946341 
L 327.095409 231.995122 
L 328.000243 231.995122 
L 328.45266 234.043902 
L 329.809912 234.043902 
L 330.262329 236.092683 
L 330.714746 236.092683 
L 331.167163 238.141463 
L 332.524415 238.141463 
L 332.976832 240.190244 
L 333.881666 240.190244 
L 334.334083 242.239024 
L 334.7865 242.239024 
L 335.238918 244.287805 
L 337.95342 244.287805 
L 338.405838 246.336585 
L 339.310672 246.336585 
L 339.763089 248.385366 
L 340.667923 248.385366 
L 341.120341 250.434146 
L 342.930009 250.434146 
L 343.382426 252.482927 
L 344.739678 252.482927 
L 345.192095 254.531707 
L 346.096929 254.531707 
L 346.549346 256.580488 
L 348.359015 256.580488 
L 348.811432 258.629268 
L 350.621101 258.629268 
L 351.073518 260.678049 
L 351.525935 258.629268 
L 351.978352 260.678049 
L 352.883186 260.678049 
L 353.335604 262.726829 
L 355.145272 262.726829 
L 355.597689 264.77561 
L 357.407358 264.77561 
L 357.859775 266.82439 
L 359.669444 266.82439 
L 360.121861 268.873171 
L 362.836364 268.873171 
L 363.288781 270.921951 
L 365.098449 270.921951 
L 365.550867 272.970732 
L 367.360535 272.970732 
L 367.812952 275.019512 
L 368.265369 272.970732 
L 368.717787 275.019512 
L 370.075038 275.019512 
L 370.527455 277.068293 
L 375.051627 277.068293 
L 375.504044 279.117073 
L 378.670964 279.117073 
L 379.123381 281.165854 
L 381.385467 281.165854 
L 381.837884 283.214634 
L 385.909638 283.214634 
L 386.362055 285.263415 
L 390.886227 285.263415 
L 391.338644 287.312195 
L 394.957981 287.312195 
L 395.410398 289.360976 
L 395.862815 287.312195 
L 396.315233 289.360976 
L 401.291821 289.360976 
L 401.744238 291.409756 
L 405.815993 291.409756 
L 406.26841 293.458537 
L 413.507084 293.458537 
L 413.959501 295.507317 
L 421.198176 295.507317 
L 421.650593 297.556098 
L 422.10301 295.507317 
L 422.555427 297.556098 
L 429.794102 297.556098 
L 430.246519 299.604878 
L 439.747279 299.604878 
L 440.199696 301.653659 
L 440.652113 299.604878 
L 442.009365 299.604878 
L 442.461782 301.653659 
L 442.914199 301.653659 
L 443.366616 299.604878 
L 443.819033 301.653659 
L 452.867376 301.653659 
L 453.319793 303.702439 
L 453.77221 301.653659 
L 457.391548 301.653659 
L 457.843965 303.702439 
L 458.748799 303.702439 
L 459.201216 301.653659 
L 459.653633 303.702439 
L 471.868896 303.702439 
L 472.321313 305.75122 
L 472.773731 303.702439 
L 473.678565 303.702439 
L 474.130982 305.75122 
L 497.656674 305.75122 
L 498.109091 307.8 
L 498.109091 307.8 
" style="fill:none;stroke:#ff0000;stroke-linecap:square;stroke-width:1.5;"/>
    <defs>
     <path d="M -5 0 
L 5 0 
M 0 5 
L 0 -5 
" id="m49ab0d9cc5" style="stroke:#0000ff;"/>
    </defs>
    <g clip-path="url(#p85b544ac28)">
     <use style="fill:#ffffff;stroke:#0000ff;" x="92.290909" xlink:href="#m49ab0d9cc5" y="307.8"/>
     <use style="fill:#ffffff;stroke:#0000ff;" x="101.339252" xlink:href="#m49ab0d9cc5" y="258.629268"/>
     <use style="fill:#ffffff;stroke:#0000ff;" x="110.387595" xlink:href="#m49ab0d9cc5" y="219.702439"/>
     <use style="fill:#ffffff;stroke:#0000ff;" x="119.435938" xlink:href="#m49ab0d9cc5" y="186.921951"/>
     <use style="fill:#ffffff;stroke:#0000ff;" x="128.484281" xlink:href="#m49ab0d9cc5" y="162.336585"/>
     <use style="fill:#ffffff;stroke:#0000ff;" x="137.532624" xlink:href="#m49ab0d9cc5" y="141.84878"/>
     <use style="fill:#ffffff;stroke:#0000ff;" x="146.580967" xlink:href="#m49ab0d9cc5" y="125.458537"/>
     <use style="fill:#ffffff;stroke:#0000ff;" x="155.62931" xlink:href="#m49ab0d9cc5" y="111.117073"/>
     <use style="fill:#ffffff;stroke:#0000ff;" x="164.677653" xlink:href="#m49ab0d9cc5" y="100.873171"/>
     <use style="fill:#ffffff;stroke:#0000ff;" x="173.725996" xlink:href="#m49ab0d9cc5" y="92.678049"/>
     <use style="fill:#ffffff;stroke:#0000ff;" x="182.774339" xlink:href="#m49ab0d9cc5" y="84.482927"/>
     <use style="fill:#ffffff;stroke:#0000ff;" x="191.822682" xlink:href="#m49ab0d9cc5" y="78.336585"/>
     <use style="fill:#ffffff;stroke:#0000ff;" x="200.871025" xlink:href="#m49ab0d9cc5" y="74.239024"/>
     <use style="fill:#ffffff;stroke:#0000ff;" x="209.919368" xlink:href="#m49ab0d9cc5" y="70.141463"/>
     <use style="fill:#ffffff;stroke:#0000ff;" x="218.967711" xlink:href="#m49ab0d9cc5" y="66.043902"/>
     <use style="fill:#ffffff;stroke:#0000ff;" x="228.016054" xlink:href="#m49ab0d9cc5" y="63.995122"/>
     <use style="fill:#ffffff;stroke:#0000ff;" x="237.064396" xlink:href="#m49ab0d9cc5" y="61.946341"/>
     <use style="fill:#ffffff;stroke:#0000ff;" x="246.112739" xlink:href="#m49ab0d9cc5" y="59.897561"/>
     <use style="fill:#ffffff;stroke:#0000ff;" x="255.161082" xlink:href="#m49ab0d9cc5" y="59.897561"/>
     <use style="fill:#ffffff;stroke:#0000ff;" x="264.209425" xlink:href="#m49ab0d9cc5" y="57.84878"/>
     <use style="fill:#ffffff;stroke:#0000ff;" x="273.257768" xlink:href="#m49ab0d9cc5" y="92.678049"/>
     <use style="fill:#ffffff;stroke:#0000ff;" x="282.306111" xlink:href="#m49ab0d9cc5" y="127.507317"/>
     <use style="fill:#ffffff;stroke:#0000ff;" x="291.354454" xlink:href="#m49ab0d9cc5" y="158.239024"/>
     <use style="fill:#ffffff;stroke:#0000ff;" x="300.402797" xlink:href="#m49ab0d9cc5" y="180.77561"/>
     <use style="fill:#ffffff;stroke:#0000ff;" x="309.45114" xlink:href="#m49ab0d9cc5" y="201.263415"/>
     <use style="fill:#ffffff;stroke:#0000ff;" x="318.499483" xlink:href="#m49ab0d9cc5" y="217.653659"/>
     <use style="fill:#ffffff;stroke:#0000ff;" x="327.547826" xlink:href="#m49ab0d9cc5" y="231.995122"/>
     <use style="fill:#ffffff;stroke:#0000ff;" x="336.596169" xlink:href="#m49ab0d9cc5" y="244.287805"/>
     <use style="fill:#ffffff;stroke:#0000ff;" x="345.644512" xlink:href="#m49ab0d9cc5" y="254.531707"/>
     <use style="fill:#ffffff;stroke:#0000ff;" x="354.692855" xlink:href="#m49ab0d9cc5" y="262.726829"/>
     <use style="fill:#ffffff;stroke:#0000ff;" x="363.741198" xlink:href="#m49ab0d9cc5" y="270.921951"/>
     <use style="fill:#ffffff;stroke:#0000ff;" x="372.789541" xlink:href="#m49ab0d9cc5" y="277.068293"/>
     <use style="fill:#ffffff;stroke:#0000ff;" x="381.837884" xlink:href="#m49ab0d9cc5" y="283.214634"/>
     <use style="fill:#ffffff;stroke:#0000ff;" x="390.886227" xlink:href="#m49ab0d9cc5" y="285.263415"/>
     <use style="fill:#ffffff;stroke:#0000ff;" x="399.93457" xlink:href="#m49ab0d9cc5" y="289.360976"/>
     <use style="fill:#ffffff;stroke:#0000ff;" x="408.982913" xlink:href="#m49ab0d9cc5" y="293.458537"/>
     <use style="fill:#ffffff;stroke:#0000ff;" x="418.031256" xlink:href="#m49ab0d9cc5" y="295.507317"/>
     <use style="fill:#ffffff;stroke:#0000ff;" x="427.079599" xlink:href="#m49ab0d9cc5" y="297.556098"/>
     <use style="fill:#ffffff;stroke:#0000ff;" x="436.127942" xlink:href="#m49ab0d9cc5" y="299.604878"/>
     <use style="fill:#ffffff;stroke:#0000ff;" x="445.176285" xlink:href="#m49ab0d9cc5" y="301.653659"/>
     <use style="fill:#ffffff;stroke:#0000ff;" x="454.224628" xlink:href="#m49ab0d9cc5" y="301.653659"/>
     <use style="fill:#ffffff;stroke:#0000ff;" x="463.272971" xlink:href="#m49ab0d9cc5" y="303.702439"/>
     <use style="fill:#ffffff;stroke:#0000ff;" x="472.321313" xlink:href="#m49ab0d9cc5" y="305.75122"/>
     <use style="fill:#ffffff;stroke:#0000ff;" x="481.369656" xlink:href="#m49ab0d9cc5" y="305.75122"/>
     <use style="fill:#ffffff;stroke:#0000ff;" x="490.417999" xlink:href="#m49ab0d9cc5" y="305.75122"/>
    </g>
   </g>
   <g id="patch_3">
    <path d="M 72 320.4 
L 72 43.2 
" style="fill:none;stroke:#000000;stroke-linecap:square;stroke-linejoin:miter;stroke-width:0.8;"/>
   </g>
   <g id="patch_4">
    <path d="M 518.4 320.4 
L 518.4 43.2 
" style="fill:none;stroke:#000000;stroke-linecap:square;stroke-linejoin:miter;stroke-width:0.8;"/>
   </g>
   <g id="patch_5">
    <path d="M 72 320.4 
L 518.4 320.4 
" style="fill:none;stroke:#000000;stroke-linecap:square;stroke-linejoin:miter;stroke-width:0.8;"/>
   </g>
   <g id="patch_6">
    <path d="M 72 43.2 
L 518.4 43.2 
" style="fill:none;stroke:#000000;stroke-linecap:square;stroke-linejoin:miter;stroke-width:0.8;"/>
   </g>
   <g id="text_13">
    <!-- Процесс зарядки и разрядки конденсатора в RC-цепочке -->
    <g transform="translate(113.170312 37.2)scale(0.12 -0.12)">
     <defs>
      <path d="M 4184 4666 
L 4184 0 
L 3553 0 
L 3553 4134 
L 1259 4134 
L 1259 0 
L 628 0 
L 628 4666 
L 4184 4666 
z
" id="DejaVuSans-41f" transform="scale(0.015625)"/>
      <path d="M 1159 525 
L 1159 -1331 
L 581 -1331 
L 581 3500 
L 1159 3500 
L 1159 2969 
Q 1341 3281 1617 3432 
Q 1894 3584 2278 3584 
Q 2916 3584 3314 3078 
Q 3713 2572 3713 1747 
Q 3713 922 3314 415 
Q 2916 -91 2278 -91 
Q 1894 -91 1617 61 
Q 1341 213 1159 525 
z
M 3116 1747 
Q 3116 2381 2855 2742 
Q 2594 3103 2138 3103 
Q 1681 3103 1420 2742 
Q 1159 2381 1159 1747 
Q 1159 1113 1420 752 
Q 1681 391 2138 391 
Q 2594 391 2855 752 
Q 3116 1113 3116 1747 
z
" id="DejaVuSans-440" transform="scale(0.015625)"/>
      <path d="M 1959 3097 
Q 1497 3097 1228 2736 
Q 959 2375 959 1747 
Q 959 1119 1226 758 
Q 1494 397 1959 397 
Q 2419 397 2687 759 
Q 2956 1122 2956 1747 
Q 2956 2369 2687 2733 
Q 2419 3097 1959 3097 
z
M 1959 3584 
Q 2709 3584 3137 3096 
Q 3566 2609 3566 1747 
Q 3566 888 3137 398 
Q 2709 -91 1959 -91 
Q 1206 -91 779 398 
Q 353 888 353 1747 
Q 353 2609 779 3096 
Q 1206 3584 1959 3584 
z
" id="DejaVuSans-43e" transform="scale(0.015625)"/>
      <path d="M 3603 0 
L 581 0 
L 581 3500 
L 1159 3500 
L 1159 459 
L 3025 459 
L 3025 3500 
L 3603 3500 
L 3603 459 
L 4063 459 
L 4063 -884 
L 3603 -884 
L 3603 0 
z
" id="DejaVuSans-446" transform="scale(0.015625)"/>
      <path d="M 3597 1894 
L 3597 1613 
L 953 1613 
Q 991 1019 1311 708 
Q 1631 397 2203 397 
Q 2534 397 2845 478 
Q 3156 559 3463 722 
L 3463 178 
Q 3153 47 2828 -22 
Q 2503 -91 2169 -91 
Q 1331 -91 842 396 
Q 353 884 353 1716 
Q 353 2575 817 3079 
Q 1281 3584 2069 3584 
Q 2775 3584 3186 3129 
Q 3597 2675 3597 1894 
z
M 3022 2063 
Q 3016 2534 2758 2815 
Q 2500 3097 2075 3097 
Q 1594 3097 1305 2825 
Q 1016 2553 972 2059 
L 3022 2063 
z
" id="DejaVuSans-435" transform="scale(0.015625)"/>
      <path d="M 2206 1888 
Q 2594 1813 2809 1584 
Q 3025 1356 3025 1019 
Q 3025 478 2622 193 
Q 2219 -91 1475 -91 
Q 1225 -91 961 -47 
Q 697 -3 416 84 
L 416 619 
Q 638 503 903 445 
Q 1169 388 1459 388 
Q 1931 388 2195 563 
Q 2459 738 2459 1019 
Q 2459 1294 2225 1461 
Q 1991 1628 1563 1628 
L 1100 1628 
L 1100 2103 
L 1584 2103 
Q 1947 2103 2158 2242 
Q 2369 2381 2369 2600 
Q 2369 2800 2151 2944 
Q 1934 3088 1563 3088 
Q 1341 3088 1089 3047 
Q 838 3006 534 2916 
L 534 3438 
Q 841 3513 1106 3550 
Q 1372 3588 1609 3588 
Q 2222 3588 2576 3342 
Q 2931 3097 2931 2656 
Q 2931 2366 2743 2164 
Q 2556 1963 2206 1888 
z
" id="DejaVuSans-437" transform="scale(0.015625)"/>
      <path d="M 2194 1759 
Q 1497 1759 1228 1600 
Q 959 1441 959 1056 
Q 959 750 1161 570 
Q 1363 391 1709 391 
Q 2188 391 2477 730 
Q 2766 1069 2766 1631 
L 2766 1759 
L 2194 1759 
z
M 3341 1997 
L 3341 0 
L 2766 0 
L 2766 531 
Q 2569 213 2275 61 
Q 1981 -91 1556 -91 
Q 1019 -91 701 211 
Q 384 513 384 1019 
Q 384 1609 779 1909 
Q 1175 2209 1959 2209 
L 2766 2209 
L 2766 2266 
Q 2766 2663 2505 2880 
Q 2244 3097 1772 3097 
Q 1472 3097 1187 3025 
Q 903 2953 641 2809 
L 641 3341 
Q 956 3463 1253 3523 
Q 1550 3584 1831 3584 
Q 2591 3584 2966 3190 
Q 3341 2797 3341 1997 
z
" id="DejaVuSans-430" transform="scale(0.015625)"/>
      <path d="M 1181 2491 
Q 1181 2231 1381 2084 
Q 1581 1938 1953 1938 
L 2728 1938 
L 2728 3041 
L 1953 3041 
Q 1581 3041 1381 2897 
Q 1181 2753 1181 2491 
z
M 363 0 
L 1431 1534 
Q 1069 1616 828 1830 
Q 588 2044 588 2491 
Q 588 2997 923 3248 
Q 1259 3500 1938 3500 
L 3306 3500 
L 3306 0 
L 2728 0 
L 2728 1478 
L 2013 1478 
L 981 0 
L 363 0 
z
" id="DejaVuSans-44f" transform="scale(0.015625)"/>
      <path d="M 1384 459 
L 3053 459 
L 3053 3041 
L 1844 3041 
L 1844 2603 
Q 1844 1316 1475 628 
L 1384 459 
z
M 550 459 
Q 834 584 959 850 
Q 1266 1509 1266 2838 
L 1266 3500 
L 3631 3500 
L 3631 459 
L 4091 459 
L 4091 -884 
L 3631 -884 
L 3631 0 
L 794 0 
L 794 -884 
L 334 -884 
L 334 459 
L 550 459 
z
" id="DejaVuSans-434" transform="scale(0.015625)"/>
      <path d="M 581 3500 
L 1153 3500 
L 1153 1856 
L 2775 3500 
L 3481 3500 
L 2144 2147 
L 3653 0 
L 3009 0 
L 1769 1766 
L 1153 1141 
L 1153 0 
L 581 0 
L 581 3500 
z
" id="DejaVuSans-43a" transform="scale(0.015625)"/>
      <path d="M 3578 3500 
L 3578 0 
L 3006 0 
L 3006 2809 
L 1319 0 
L 581 0 
L 581 3500 
L 1153 3500 
L 1153 697 
L 2838 3500 
L 3578 3500 
z
" id="DejaVuSans-438" transform="scale(0.015625)"/>
      <path d="M 581 3500 
L 1159 3500 
L 1159 2072 
L 3025 2072 
L 3025 3500 
L 3603 3500 
L 3603 0 
L 3025 0 
L 3025 1613 
L 1159 1613 
L 1159 0 
L 581 0 
L 581 3500 
z
" id="DejaVuSans-43d" transform="scale(0.015625)"/>
      <path d="M 188 3500 
L 3541 3500 
L 3541 3041 
L 2147 3041 
L 2147 0 
L 1581 0 
L 1581 3041 
L 188 3041 
L 188 3500 
z
" id="DejaVuSans-442" transform="scale(0.015625)"/>
      <path d="M 1156 1613 
L 1156 459 
L 1975 459 
Q 2369 459 2575 607 
Q 2781 756 2781 1038 
Q 2781 1319 2575 1466 
Q 2369 1613 1975 1613 
L 1156 1613 
z
M 1156 3041 
L 1156 2072 
L 1913 2072 
Q 2238 2072 2444 2201 
Q 2650 2331 2650 2563 
Q 2650 2794 2444 2917 
Q 2238 3041 1913 3041 
L 1156 3041 
z
M 581 3500 
L 1950 3500 
Q 2566 3500 2897 3275 
Q 3228 3050 3228 2634 
Q 3228 2313 3059 2123 
Q 2891 1934 2559 1888 
Q 2956 1813 3175 1575 
Q 3394 1338 3394 981 
Q 3394 513 3033 256 
Q 2672 0 2003 0 
L 581 0 
L 581 3500 
z
" id="DejaVuSans-432" transform="scale(0.015625)"/>
      <path d="M 2841 2188 
Q 3044 2119 3236 1894 
Q 3428 1669 3622 1275 
L 4263 0 
L 3584 0 
L 2988 1197 
Q 2756 1666 2539 1819 
Q 2322 1972 1947 1972 
L 1259 1972 
L 1259 0 
L 628 0 
L 628 4666 
L 2053 4666 
Q 2853 4666 3247 4331 
Q 3641 3997 3641 3322 
Q 3641 2881 3436 2590 
Q 3231 2300 2841 2188 
z
M 1259 4147 
L 1259 2491 
L 2053 2491 
Q 2509 2491 2742 2702 
Q 2975 2913 2975 3322 
Q 2975 3731 2742 3939 
Q 2509 4147 2053 4147 
L 1259 4147 
z
" id="DejaVuSans-52" transform="scale(0.015625)"/>
      <path d="M 4122 4306 
L 4122 3641 
Q 3803 3938 3442 4084 
Q 3081 4231 2675 4231 
Q 1875 4231 1450 3742 
Q 1025 3253 1025 2328 
Q 1025 1406 1450 917 
Q 1875 428 2675 428 
Q 3081 428 3442 575 
Q 3803 722 4122 1019 
L 4122 359 
Q 3791 134 3420 21 
Q 3050 -91 2638 -91 
Q 1578 -91 968 557 
Q 359 1206 359 2328 
Q 359 3453 968 4101 
Q 1578 4750 2638 4750 
Q 3056 4750 3426 4639 
Q 3797 4528 4122 4306 
z
" id="DejaVuSans-43" transform="scale(0.015625)"/>
      <path d="M 313 2009 
L 1997 2009 
L 1997 1497 
L 313 1497 
L 313 2009 
z
" id="DejaVuSans-2d" transform="scale(0.015625)"/>
      <path d="M 3603 3500 
L 3603 0 
L 3025 0 
L 3025 3041 
L 1159 3041 
L 1159 0 
L 581 0 
L 581 3500 
L 3603 3500 
z
" id="DejaVuSans-43f" transform="scale(0.015625)"/>
      <path d="M 2625 0 
L 2625 1472 
L 1553 1472 
Q 1075 1472 756 1769 
Q 469 2038 469 2613 
L 469 3500 
L 1044 3500 
L 1044 2666 
Q 1044 2300 1206 2116 
Q 1372 1931 1697 1931 
L 2625 1931 
L 2625 3500 
L 3200 3500 
L 3200 0 
L 2625 0 
z
" id="DejaVuSans-447" transform="scale(0.015625)"/>
     </defs>
     <use xlink:href="#DejaVuSans-41f"/>
     <use x="75.195312" xlink:href="#DejaVuSans-440"/>
     <use x="138.671875" xlink:href="#DejaVuSans-43e"/>
     <use x="199.853516" xlink:href="#DejaVuSans-446"/>
     <use x="267.919922" xlink:href="#DejaVuSans-435"/>
     <use x="329.443359" xlink:href="#DejaVuSans-441"/>
     <use x="384.423828" xlink:href="#DejaVuSans-441"/>
     <use x="439.404297" xlink:href="#DejaVuSans-20"/>
     <use x="471.191406" xlink:href="#DejaVuSans-437"/>
     <use x="524.365234" xlink:href="#DejaVuSans-430"/>
     <use x="585.644531" xlink:href="#DejaVuSans-440"/>
     <use x="649.121094" xlink:href="#DejaVuSans-44f"/>
     <use x="709.277344" xlink:href="#DejaVuSans-434"/>
     <use x="778.417969" xlink:href="#DejaVuSans-43a"/>
     <use x="838.818359" xlink:href="#DejaVuSans-438"/>
     <use x="903.808594" xlink:href="#DejaVuSans-20"/>
     <use x="935.595703" xlink:href="#DejaVuSans-438"/>
     <use x="1000.585938" xlink:href="#DejaVuSans-20"/>
     <use x="1032.373047" xlink:href="#DejaVuSans-440"/>
     <use x="1095.849609" xlink:href="#DejaVuSans-430"/>
     <use x="1157.128906" xlink:href="#DejaVuSans-437"/>
     <use x="1210.302734" xlink:href="#DejaVuSans-440"/>
     <use x="1273.779297" xlink:href="#DejaVuSans-44f"/>
     <use x="1333.935547" xlink:href="#DejaVuSans-434"/>
     <use x="1403.076172" xlink:href="#DejaVuSans-43a"/>
     <use x="1463.476562" xlink:href="#DejaVuSans-438"/>
     <use x="1528.466797" xlink:href="#DejaVuSans-20"/>
     <use x="1560.253906" xlink:href="#DejaVuSans-43a"/>
     <use x="1620.654297" xlink:href="#DejaVuSans-43e"/>
     <use x="1681.835938" xlink:href="#DejaVuSans-43d"/>
     <use x="1747.216797" xlink:href="#DejaVuSans-434"/>
     <use x="1816.357422" xlink:href="#DejaVuSans-435"/>
     <use x="1877.880859" xlink:href="#DejaVuSans-43d"/>
     <use x="1943.261719" xlink:href="#DejaVuSans-441"/>
     <use x="1998.242188" xlink:href="#DejaVuSans-430"/>
     <use x="2059.521484" xlink:href="#DejaVuSans-442"/>
     <use x="2117.773438" xlink:href="#DejaVuSans-43e"/>
     <use x="2178.955078" xlink:href="#DejaVuSans-440"/>
     <use x="2242.431641" xlink:href="#DejaVuSans-430"/>
     <use x="2303.710938" xlink:href="#DejaVuSans-20"/>
     <use x="2335.498047" xlink:href="#DejaVuSans-432"/>
     <use x="2394.433594" xlink:href="#DejaVuSans-20"/>
     <use x="2426.220703" xlink:href="#DejaVuSans-52"/>
     <use x="2490.703125" xlink:href="#DejaVuSans-43"/>
     <use x="2560.527344" xlink:href="#DejaVuSans-2d"/>
     <use x="2596.611328" xlink:href="#DejaVuSans-446"/>
     <use x="2664.677734" xlink:href="#DejaVuSans-435"/>
     <use x="2726.201172" xlink:href="#DejaVuSans-43f"/>
     <use x="2791.582031" xlink:href="#DejaVuSans-43e"/>
     <use x="2852.763672" xlink:href="#DejaVuSans-447"/>
     <use x="2911.845703" xlink:href="#DejaVuSans-43a"/>
     <use x="2972.246094" xlink:href="#DejaVuSans-435"/>
    </g>
   </g>
   <g id="legend_1">
    <g id="patch_7">
     <path d="M 460.835938 65.878125 
L 511.4 65.878125 
Q 513.4 65.878125 513.4 63.878125 
L 513.4 50.2 
Q 513.4 48.2 511.4 48.2 
L 460.835938 48.2 
Q 458.835938 48.2 458.835938 50.2 
L 458.835938 63.878125 
Q 458.835938 65.878125 460.835938 65.878125 
z
" style="fill:#ffffff;opacity:0.8;stroke:#cccccc;stroke-linejoin:miter;"/>
    </g>
    <g id="line2d_37">
     <path d="M 462.835938 56.298437 
L 482.835938 56.298437 
" style="fill:none;stroke:#ff0000;stroke-linecap:square;stroke-width:1.5;"/>
    </g>
    <g id="line2d_38">
     <g>
      <use style="fill:#ffffff;stroke:#0000ff;" x="472.835938" xlink:href="#m49ab0d9cc5" y="56.298437"/>
     </g>
    </g>
    <g id="text_14">
     <!-- V(t) -->
     <g transform="translate(490.835938 59.798437)scale(0.1 -0.1)">
      <defs>
       <path d="M 1984 4856 
Q 1566 4138 1362 3434 
Q 1159 2731 1159 2009 
Q 1159 1288 1364 580 
Q 1569 -128 1984 -844 
L 1484 -844 
Q 1016 -109 783 600 
Q 550 1309 550 2009 
Q 550 2706 781 3412 
Q 1013 4119 1484 4856 
L 1984 4856 
z
" id="DejaVuSans-28" transform="scale(0.015625)"/>
       <path d="M 513 4856 
L 1013 4856 
Q 1481 4119 1714 3412 
Q 1947 2706 1947 2009 
Q 1947 1309 1714 600 
Q 1481 -109 1013 -844 
L 513 -844 
Q 928 -128 1133 580 
Q 1338 1288 1338 2009 
Q 1338 2731 1133 3434 
Q 928 4138 513 4856 
z
" id="DejaVuSans-29" transform="scale(0.015625)"/>
      </defs>
      <use xlink:href="#DejaVuSans-56"/>
      <use x="68.408203" xlink:href="#DejaVuSans-28"/>
      <use x="107.421875" xlink:href="#DejaVuSans-74"/>
      <use x="146.630859" xlink:href="#DejaVuSans-29"/>
     </g>
    </g>
   </g>
  </g>
 </g>
 <defs>
  <clipPath id="p85b544ac28">
   <rect height="277.2" width="446.4" x="72" y="43.2"/>
  </clipPath>
 </defs>
</svg>
